<svg width="320" height="206" viewBox="0 0 320 206" fill="none" xmlns="http://www.w3.org/2000/svg">
<path fill-rule="evenodd" clip-rule="evenodd" d="M33.049 49.5884L152.331 17.4925L147.663 0L7.62196 37.6796L33.049 49.5884ZM7.62125 37.6817L152.385 105.47L144.764 121.882L83.8669 93.3663V160.13V160.133C83.8669 160.133 129.59 160.154 160.003 190.695C189.94 160.632 234.713 160.141 236.106 160.133V93.3791L175.239 121.881L167.617 105.469L286.952 49.588L167.675 17.4925L172.34 0L312.381 37.6796L299.163 43.8701L312.381 37.6805L320.003 54.093L285.529 70.2359V123.784C285.001 123.641 284.459 123.534 283.905 123.463C289.893 124.228 294.523 129.363 294.523 135.583C294.523 142.331 289.074 147.802 282.355 147.802C275.636 147.802 270.188 142.331 270.188 135.583C270.188 129.103 275.215 123.799 281.566 123.39C280.746 123.443 279.948 123.577 279.179 123.784V73.2094L251.513 86.1643V175.381H236.106V175.378C190.549 175.392 160.003 205.997 160.003 205.997C160.003 205.997 129.442 175.378 83.8669 175.378V175.381H68.4594V86.1515L0 54.0942L7.62125 37.6817ZM282.041 123.369C282.146 123.366 282.25 123.365 282.355 123.365H282.352C282.248 123.365 282.145 123.366 282.041 123.369ZM288.203 135.583C288.203 138.825 285.586 141.453 282.358 141.453C279.131 141.453 276.514 138.825 276.514 135.583C276.514 132.342 279.131 129.714 282.358 129.714C285.586 129.714 288.203 132.342 288.203 135.583Z" fill="url(#paint0_linear_7_91)"/>
<defs>
<linearGradient id="paint0_linear_7_91" x1="314.5" y1="6" x2="-11" y2="153.5" gradientUnits="userSpaceOnUse">
<stop stop-color="#007EB0"/>
<stop offset="1" stop-color="#7DD4AC"/>
</linearGradient>
</defs>
</svg>
