<svg width="106" height="106" viewBox="0 0 106 106" fill="none" xmlns="http://www.w3.org/2000/svg">
<path d="M49.2137 3.0801C51.4191 1.28603 54.5809 1.28602 56.7863 3.0801L62.5751 7.78914C63.9014 8.8681 65.6251 9.32995 67.3132 9.05872L74.6809 7.87494C77.4879 7.42394 80.2261 9.00483 81.239 11.6613L83.8977 18.6338C84.5068 20.2314 85.7686 21.4932 87.3662 22.1023L94.3387 24.761C96.9952 25.7739 98.5761 28.5121 98.1251 31.3191L96.9413 38.6868C96.67 40.3749 97.1319 42.0986 98.2109 43.4249L102.92 49.2137C104.714 51.4191 104.714 54.5809 102.92 56.7863L98.2109 62.5751C97.1319 63.9014 96.67 65.6251 96.9413 67.3132L98.1251 74.6809C98.5761 77.4879 96.9952 80.2261 94.3388 81.239L87.3662 83.8977C85.7687 84.5068 84.5068 85.7686 83.8977 87.3662L81.239 94.3387C80.2261 96.9952 77.4879 98.5761 74.6809 98.1251L67.3132 96.9413C65.6251 96.67 63.9014 97.1319 62.5751 98.2109L56.7863 102.92C54.5809 104.714 51.4191 104.714 49.2137 102.92L43.4249 98.2109C42.0986 97.1319 40.3749 96.67 38.6868 96.9413L31.3191 98.1251C28.5121 98.5761 25.7739 96.9952 24.761 94.3387L22.1023 87.3662C21.4932 85.7687 20.2314 84.5068 18.6338 83.8977L11.6612 81.239C9.00482 80.2261 7.42394 77.4879 7.87494 74.6809L9.05872 67.3132C9.32995 65.6251 8.8681 63.9014 7.78914 62.5751L3.0801 56.7863C1.28603 54.5809 1.28602 51.4191 3.0801 49.2137L7.78914 43.4249C8.8681 42.0986 9.32995 40.3749 9.05872 38.6868L7.87494 31.3191C7.42394 28.5121 9.00483 25.7739 11.6613 24.761L18.6338 22.1023C20.2314 21.4932 21.4932 20.2314 22.1023 18.6338L24.761 11.6613C25.7739 9.00483 28.5121 7.42394 31.3191 7.87494L38.6868 9.05872C40.3749 9.32995 42.0986 8.8681 43.4249 7.78914L49.2137 3.0801Z" fill="url(#paint0_linear_2_79)"/>
<path d="M14.888 52.8H23.624V56.768H14.888V52.8ZM32.764 60.48C34.3 60.48 35.4733 60.1813 36.284 59.584C37.116 58.9653 37.532 58.08 37.532 56.928C37.532 55.6907 37.052 54.784 36.092 54.208C35.132 53.632 33.7667 53.344 31.996 53.344L29.212 53.472V41.6H41.18V45.76H33.116V49.728L34.556 49.6C35.6867 49.6427 36.7107 49.8453 37.628 50.208C38.5453 50.5493 39.324 51.0293 39.964 51.648C40.6253 52.2667 41.1267 53.0133 41.468 53.888C41.8307 54.7627 42.012 55.7333 42.012 56.8C42.012 58.0587 41.7773 59.168 41.308 60.128C40.8387 61.088 40.188 61.888 39.356 62.528C38.5453 63.168 37.5747 63.648 36.444 63.968C35.3347 64.288 34.1293 64.448 32.828 64.448C31.7827 64.448 30.78 64.3627 29.82 64.192C28.8813 64.0213 28.092 63.7973 27.452 63.52L28.668 59.808C29.2013 60 29.7773 60.16 30.396 60.288C31.036 60.416 31.8253 60.48 32.764 60.48ZM45.3663 52.768C45.3663 48.9493 46.0916 46.0587 47.5423 44.096C49.0143 42.1333 51.1156 41.152 53.8463 41.152C56.7689 41.152 58.9129 42.1227 60.2783 44.064C61.6649 45.984 62.3583 48.8853 62.3583 52.768C62.3583 56.5653 61.6223 59.4667 60.1503 61.472C58.6783 63.456 56.5769 64.448 53.8463 64.448C52.3956 64.448 51.1369 64.1813 50.0703 63.648C49.0036 63.0933 48.1183 62.3147 47.4143 61.312C46.7316 60.288 46.2196 59.0613 45.8783 57.632C45.5369 56.1813 45.3663 54.56 45.3663 52.768ZM49.9743 52.768C49.9743 55.2213 50.2729 57.1627 50.8703 58.592C51.4676 60 52.4596 60.704 53.8463 60.704C55.2543 60.704 56.2569 60.064 56.8543 58.784C57.4516 57.504 57.7503 55.4987 57.7503 52.768C57.7503 51.552 57.6756 50.464 57.5263 49.504C57.3983 48.5227 57.1849 47.6907 56.8863 47.008C56.5876 46.3253 56.1823 45.8027 55.6703 45.44C55.1796 45.0773 54.5716 44.896 53.8463 44.896C52.4596 44.896 51.4676 45.568 50.8703 46.912C50.2729 48.2347 49.9743 50.1867 49.9743 52.768ZM65.0085 46.656C65.0085 45.696 65.1578 44.8747 65.4565 44.192C65.7552 43.5093 66.1712 42.9547 66.7045 42.528C67.2592 42.08 67.8992 41.7493 68.6245 41.536C69.3712 41.3227 70.1925 41.216 71.0885 41.216C71.9632 41.216 72.7738 41.312 73.5205 41.504C74.2672 41.696 74.9072 42.016 75.4405 42.464C75.9952 42.8907 76.4218 43.456 76.7205 44.16C77.0192 44.8427 77.1685 45.6747 77.1685 46.656C77.1685 47.6587 77.0192 48.5013 76.7205 49.184C76.4218 49.8667 75.9952 50.432 75.4405 50.88C74.9072 51.3067 74.2672 51.616 73.5205 51.808C72.7738 52 71.9632 52.096 71.0885 52.096C70.1925 52.096 69.3712 52 68.6245 51.808C67.8992 51.616 67.2592 51.3067 66.7045 50.88C66.1712 50.432 65.7552 49.8667 65.4565 49.184C65.1578 48.5013 65.0085 47.6587 65.0085 46.656ZM69.0725 46.656C69.0725 47.488 69.2218 48.1387 69.5205 48.608C69.8192 49.0773 70.3418 49.312 71.0885 49.312C71.8138 49.312 72.3258 49.1093 72.6245 48.704C72.9232 48.2987 73.0725 47.616 73.0725 46.656C73.0725 45.696 72.9232 45.0133 72.6245 44.608C72.3258 44.2027 71.8138 44 71.0885 44C70.3632 44 69.8405 44.2027 69.5205 44.608C69.2218 45.0133 69.0725 45.696 69.0725 46.656ZM79.1205 58.56C79.1205 57.6 79.2698 56.7787 79.5685 56.096C79.8672 55.4133 80.2832 54.8587 80.8165 54.432C81.3712 53.984 82.0112 53.6533 82.7365 53.44C83.4832 53.2267 84.3045 53.12 85.2005 53.12C86.0752 53.12 86.8858 53.216 87.6325 53.408C88.3792 53.6 89.0192 53.92 89.5525 54.368C90.1072 54.7947 90.5338 55.36 90.8325 56.064C91.1312 56.7467 91.2805 57.5787 91.2805 58.56C91.2805 59.5627 91.1312 60.4053 90.8325 61.088C90.5338 61.7707 90.1072 62.336 89.5525 62.784C89.0192 63.2107 88.3792 63.52 87.6325 63.712C86.8858 63.904 86.0752 64 85.2005 64C84.3045 64 83.4832 63.904 82.7365 63.712C82.0112 63.52 81.3712 63.2107 80.8165 62.784C80.2832 62.336 79.8672 61.7707 79.5685 61.088C79.2698 60.4053 79.1205 59.5627 79.1205 58.56ZM83.1845 58.56C83.1845 59.392 83.3338 60.0427 83.6325 60.512C83.9312 60.9813 84.4538 61.216 85.2005 61.216C85.9258 61.216 86.4378 61.0133 86.7365 60.608C87.0352 60.2027 87.1845 59.52 87.1845 58.56C87.1845 57.6 87.0352 56.9173 86.7365 56.512C86.4378 56.1067 85.9258 55.904 85.2005 55.904C84.4752 55.904 83.9525 56.1067 83.6325 56.512C83.3338 56.9173 83.1845 57.6 83.1845 58.56ZM86.7365 41.024L89.2645 43.488L69.2645 64.448L66.8325 61.984L86.7365 41.024Z" fill="white"/>
<defs>
<linearGradient id="paint0_linear_2_79" x1="84.5" y1="13" x2="18.5" y2="86.5" gradientUnits="userSpaceOnUse">
<stop stop-color="#0092CC"/>
<stop offset="1" stop-color="#51C791"/>
</linearGradient>
</defs>
</svg>
