<svg width="104" height="105" viewBox="0 0 104 105" fill="none" xmlns="http://www.w3.org/2000/svg">
<g filter="url(#filter0_d_23_273)">
<path d="M59.0309 13.9387C61.6445 12.8199 64.6845 13.689 66.3118 16.0202L68.782 19.5587C69.7607 20.9607 71.291 21.8785 72.9887 22.0817L77.2736 22.5946C80.0964 22.9326 82.2946 25.2052 82.5383 28.0377L82.9083 32.3373C83.0549 34.0408 83.9212 35.6008 85.2899 36.6256L88.7442 39.2122C91.0199 40.9163 91.7872 43.9835 90.5821 46.5585L88.7527 50.467C88.0279 52.0155 87.9982 53.7997 88.671 55.3716L90.3692 59.3388C91.488 61.9524 90.6189 64.9924 88.2878 66.6198L84.7492 69.0899C83.3473 70.0686 82.4294 71.599 82.2262 73.2966L81.7133 77.5815C81.3754 80.4043 79.1028 82.6025 76.2702 82.8462L71.9707 83.2162C70.2672 83.3628 68.7072 84.2292 67.6823 85.5978L65.0957 89.0521C63.3916 91.3278 60.3244 92.0951 57.7495 90.89L53.841 89.0606C52.2924 88.3358 50.5082 88.3061 48.9364 88.9789L44.9691 90.6771C42.3555 91.7959 39.3155 90.9269 37.6882 88.5957L35.218 85.0572C34.2393 83.6552 32.709 82.7374 31.0113 82.5341L26.7265 82.0212C23.9036 81.6833 21.7055 79.4107 21.4617 76.5781L21.0917 72.2786C20.9452 70.5751 20.0788 69.0151 18.7102 67.9903L15.2558 65.4036C12.9802 63.6996 12.2128 60.6323 13.418 58.0574L15.2473 54.1489C15.9721 52.6003 16.0018 50.8161 15.329 49.2443L13.6308 45.277C12.512 42.6634 13.3811 39.6234 15.7122 37.9961L19.2508 35.5259C20.6527 34.5472 21.5706 33.0169 21.7738 31.3192L22.2867 27.0344C22.6247 24.2116 24.8973 22.0134 27.7298 21.7696L32.0294 21.3997C33.7328 21.2531 35.2929 20.3867 36.3177 19.0181L38.9043 15.5638C40.6084 13.2881 43.6756 12.5207 46.2505 13.7259L50.1591 15.5552C51.7076 16.28 53.4918 16.3098 55.0636 15.6369L59.0309 13.9387Z" fill="url(#paint0_linear_23_273)"/>
<path d="M22.9806 43.911L29.2803 45.7119L28.4623 48.5733L22.1626 46.7724L22.9806 43.911ZM34.288 53.1343C35.3956 53.4509 36.3033 53.4774 37.011 53.2138C37.7385 52.9392 38.221 52.3865 38.4585 51.5558C38.7136 50.6636 38.5544 49.9108 37.9808 49.2975C37.4073 48.6843 36.4821 48.1951 35.2053 47.8301L33.1713 47.3485L35.6187 38.7874L44.249 41.2546L43.3914 44.2545L37.5764 42.5921L36.7584 45.4534L37.8232 45.658C38.6297 45.9219 39.3263 46.2791 39.9131 46.7297C40.5042 47.165 40.9668 47.6716 41.3007 48.2497C41.6501 48.8322 41.8577 49.4739 41.9235 50.175C42.0047 50.8805 41.9354 51.6179 41.7155 52.3871C41.456 53.2947 41.0581 54.0463 40.5218 54.6418C39.9854 55.2373 39.3513 55.6801 38.6194 55.9701C37.9029 56.2644 37.104 56.4105 36.2227 56.4081C35.3567 56.4102 34.4546 56.2771 33.5162 56.0088C32.7624 55.7933 32.0569 55.5251 31.3998 55.2041C30.7581 54.8876 30.2351 54.5633 29.8308 54.2314L31.4729 51.8053C31.8179 52.0537 32.2003 52.2878 32.62 52.5077C33.0551 52.7319 33.6111 52.9408 34.288 53.1343ZM44.9655 50.171C45.7527 47.4173 46.8716 45.4824 48.3223 44.3661C49.7884 43.2543 51.506 42.9798 53.4751 43.5427C55.5827 44.1452 56.9287 45.2872 57.513 46.9685C58.1172 48.6389 58.019 50.8741 57.2186 53.6739C56.4358 56.4122 55.3069 58.3527 53.8321 59.4953C52.3616 60.6225 50.6418 60.9047 48.6727 60.3417C47.6266 60.0427 46.7739 59.5909 46.1147 58.9864C45.4598 58.3666 44.9819 57.6225 44.681 56.7544C44.3998 55.8752 44.2835 54.8851 44.332 53.784C44.3849 52.6676 44.5961 51.4632 44.9655 50.171ZM48.2884 51.1209C47.7826 52.8901 47.5978 54.3516 47.7339 55.5054C47.8743 56.6439 48.4446 57.356 49.4445 57.6419C50.4598 57.9322 51.3148 57.6773 52.0094 56.8775C52.704 56.0776 53.3328 54.6931 53.8957 52.724C54.1464 51.8471 54.3169 51.0471 54.4071 50.3241C54.5171 49.59 54.5347 48.9461 54.4601 48.3922C54.3855 47.8384 54.2009 47.3779 53.9065 47.0109C53.6274 46.6482 53.2264 46.3921 52.7033 46.2426C51.7034 45.9567 50.8495 46.2368 50.1417 47.0828C49.4383 47.9135 48.8205 49.2595 48.2884 51.1209ZM60.3897 49.8128C60.5876 49.1205 60.8646 48.5591 61.2207 48.1283C61.5768 47.6976 61.9912 47.3834 62.4637 47.1857C62.956 46.977 63.4857 46.8705 64.0527 46.8661C64.6352 46.8662 65.2494 46.9586 65.8955 47.1433C66.5263 47.3237 67.0911 47.56 67.5899 47.8524C68.0888 48.1448 68.4843 48.5075 68.7765 48.9405C69.0886 49.3625 69.2797 49.8581 69.3499 50.4273C69.4246 50.9812 69.3607 51.6119 69.1584 52.3196C68.9517 53.0426 68.6703 53.6195 68.3142 54.0502C67.9581 54.4809 67.5339 54.8006 67.0416 55.0093C66.569 55.2071 66.0438 55.2982 65.4657 55.2827C64.8877 55.2672 64.2834 55.1694 63.6526 54.989C63.0065 54.8043 62.434 54.5658 61.9352 54.2734C61.4517 53.9854 61.054 53.6304 60.742 53.2084C60.4497 52.7754 60.2663 52.282 60.1916 51.7281C60.117 51.1743 60.183 50.5358 60.3897 49.8128ZM63.3203 50.6506C63.1488 51.2506 63.1224 51.7506 63.241 52.1506C63.3596 52.5506 63.6881 52.8275 64.2265 52.9815C64.7496 53.131 65.1606 53.0904 65.4595 52.8597C65.7584 52.629 66.0069 52.1675 66.2048 51.4752C66.4027 50.7829 66.4357 50.2599 66.3039 49.906C66.1721 49.5521 65.8447 49.3004 65.3216 49.1509C64.7986 49.0014 64.3799 49.0398 64.0656 49.2661C63.7666 49.4968 63.5182 49.9583 63.3203 50.6506ZM68.1121 61.3061C68.31 60.6138 68.587 60.0523 68.9431 59.6216C69.2992 59.1909 69.7135 58.8767 70.186 58.679C70.6784 58.4703 71.2081 58.3638 71.7751 58.3594C72.3575 58.3595 72.9717 58.4519 73.6179 58.6366C74.2486 58.817 74.8134 59.0533 75.3122 59.3457C75.8111 59.6381 76.2066 60.0007 76.4989 60.4338C76.8109 60.8558 77.002 61.3514 77.0723 61.9206C77.1469 62.4745 77.0831 63.1052 76.8808 63.8129C76.6741 64.5359 76.3927 65.1128 76.0366 65.5435C75.6805 65.9742 75.2562 66.2939 74.7639 66.5026C74.2914 66.7004 73.7661 66.7915 73.1881 66.776C72.6101 66.7605 72.0057 66.6627 71.375 66.4823C70.7288 66.2976 70.1564 66.0591 69.6575 65.7667C69.174 65.4787 68.7763 65.1237 68.4643 64.7017C68.172 64.2687 67.9886 63.7753 67.914 63.2214C67.8393 62.6676 67.9054 62.0291 68.1121 61.3061ZM71.0427 62.1439C70.8711 62.7439 70.8447 63.2438 70.9633 63.6439C71.0819 64.0439 71.4105 64.3208 71.9489 64.4748C72.4719 64.6243 72.8829 64.5837 73.1818 64.353C73.4808 64.1223 73.7292 63.6608 73.9271 62.9685C74.125 62.2762 74.158 61.7532 74.0262 61.3993C73.8944 61.0454 73.567 60.7937 73.0439 60.6442C72.5209 60.4947 72.1022 60.5331 71.7879 60.7594C71.489 60.9901 71.2406 61.4516 71.0427 62.1439ZM77.2191 50.2307L78.5341 52.5287L59.791 63.5202L58.5452 61.242L77.2191 50.2307Z" fill="white"/>
</g>
<defs>
<filter id="filter0_d_23_273" x="9.85168" y="11.1597" width="82.2966" height="82.2965" filterUnits="userSpaceOnUse" color-interpolation-filters="sRGB">
<feFlood flood-opacity="0" result="BackgroundImageFix"/>
<feColorMatrix in="SourceAlpha" type="matrix" values="0 0 0 0 0 0 0 0 0 0 0 0 0 0 0 0 0 0 127 0" result="hardAlpha"/>
<feOffset dx="-1"/>
<feGaussianBlur stdDeviation="1"/>
<feComposite in2="hardAlpha" operator="out"/>
<feColorMatrix type="matrix" values="0 0 0 0 0 0 0 0 0 0 0 0 0 0 0 0 0 0 0.25 0"/>
<feBlend mode="normal" in2="BackgroundImageFix" result="effect1_dropShadow_23_273"/>
<feBlend mode="normal" in="SourceGraphic" in2="effect1_dropShadow_23_273" result="shape"/>
</filter>
<linearGradient id="paint0_linear_23_273" x1="84.6387" y1="28.746" x2="18.4933" y2="70.2767" gradientUnits="userSpaceOnUse">
<stop stop-color="#0092CC"/>
<stop offset="1" stop-color="#51C791"/>
</linearGradient>
</defs>
</svg>
